<svg xmlns="http://www.w3.org/2000/svg" version="1.1" width="24" height="24"><rect id="backgroundrect" width="100%" height="100%" x="0" y="0" fill="none" stroke="none"/>
<title>skip-forward</title>


<g class="currentLayer" style=""><title>Layer 1</title><path d="M5.076439833641052,3.2 c-0.30000000000000004,-0.2 -0.7000000000000001,-0.30000000000000004 -1,-0.1 c-0.4,0.2 -0.6000000000000001,0.5 -0.6000000000000001,0.9 v16 c0,0.4 0.2,0.7000000000000001 0.6000000000000001,0.9 c0.1,0.1 0.30000000000000004,0.1 0.4,0.1 c0.2,0 0.4,-0.1 0.6000000000000001,-0.2 l10,-8 c0.2,-0.2 0.4,-0.5 0.4,-0.8 s-0.1,-0.6000000000000001 -0.4,-0.8 l-10,-8 zM5.476439833641052,17.9 v-11.8 l7.4,5.9 l-7.4,5.9 z" id="svg_1" class="" fill="#ffffff" fill-opacity="1"/><path d="M19 4c-0.6 0-1 0.4-1 1v14c0 0.6 0.4 1 1 1s1-0.4 1-1v-14c0-0.6-0.4-1-1-1z" id="svg_2" class="selected" fill="#ffffff" fill-opacity="1"/></g></svg>